# xmcd
#
# Track frame offsets: 
#        150
#        17645
#        31684
#        45919
#        50256
#        76756
#        117801
#        131705
#        146875
#
# Disc length: 2281 seconds
#
# Revision: 0
# Processed by: cddbd v1.5.2PL0 Copyright (c) Steve Scherf et al.
# Submitted via: ExactAudioCopy v1.0b1
#
DISCID=6708e709
DTITLE=J. Geils Band - Monkey Island
DYEAR=1977
DGENRE=Blues Rock
TTITLE0=Surrender
TTITLE1=You're the Only One
TTITLE2=I Do
TTITLE3=Somebody
TTITLE4=I'm Falling
TTITLE5=Monkey Island
TTITLE6=I'm not rough
TTITLE7=So Good
TTITLE8=Wreckage
EXTD=
EXTT0=
EXTT1=
EXTT2=
EXTT3=
EXTT4=
EXTT5=
EXTT6=
EXTT7=
EXTT8=
PLAYORDER=
